<?xml version="1.0" encoding="UTF-8"?>
<svg width="200" height="200" viewBox="0 0 200 200" xmlns="http://www.w3.org/2000/svg">
  <defs>
    <style>
      .cap-main { fill: #4a7c59; }
      .cap-shadow { fill: #3a6249; }
      .cap-highlight { fill: #ffffff; }
      .circuit-lines { fill: none; stroke: #ffffff; stroke-width: 2.5; stroke-linecap: round; }
      .circuit-nodes { fill: #ffffff; }
      .text-main { fill: #1e3a5f; font-family: 'Arial', sans-serif; font-weight: bold; }
    </style>
  </defs>
  
  <!-- Background circle for better visibility -->
  <circle cx="100" cy="100" r="95" fill="#f8f9fa" stroke="#e9ecef" stroke-width="2"/>
  
  <!-- Graduation Cap -->
  <g transform="translate(100, 85)">
    <!-- Cap shadow for depth -->
    <path d="M-35,-15 L-15,-28 L25,-28 L45,-15 L45,25 L25,38 L-15,38 L-35,25 Z" class="cap-shadow" opacity="0.3" transform="translate(2, 2)"/>
    
    <!-- Main cap hexagon -->
    <path d="M-35,-15 L-15,-28 L25,-28 L45,-15 L45,25 L25,38 L-15,38 L-35,25 Z" class="cap-main"/>
    
    <!-- Cap border highlight -->
    <path d="M-35,-15 L-15,-28 L25,-28 L45,-15 L45,25 L25,38 L-15,38 L-35,25 Z" 
          fill="none" stroke="#ffffff" stroke-width="1" opacity="0.6"/>
    
    <!-- Tassel cord -->
    <g transform="translate(47, -12)">
      <rect x="0" y="0" width="3" height="35" rx="1.5" class="cap-highlight"/>
      <!-- Tassel -->
      <ellipse cx="1.5" cy="38" rx="8" ry="6" class="cap-highlight"/>
      <g fill="#ffffff" opacity="0.8">
        <rect x="-2" y="35" width="1" height="8" rx="0.5"/>
        <rect x="0" y="37" width="1" height="6" rx="0.5"/>
        <rect x="2" y="36" width="1" height="7" rx="0.5"/>
        <rect x="4" y="35" width="1" height="8" rx="0.5"/>
      </g>
    </g>
    
    <!-- Circuit board pattern inside cap -->
    <g class="circuit-lines">
      <!-- Main horizontal lines -->
      <line x1="-20" y1="-8" x2="0" y2="-8"/>
      <line x1="8" y1="-8" x2="28" y2="-8"/>
      <line x1="-20" y1="5" x2="0" y2="5"/>
      <line x1="8" y1="5" x2="28" y2="5"/>
      <line x1="-12" y1="18" x2="20" y2="18"/>
      
      <!-- Vertical connections -->
      <line x1="-12" y1="-8" x2="-12" y2="5"/>
      <line x1="20" y1="-8" x2="20" y2="5"/>
      <line x1="4" y1="5" x2="4" y2="18"/>
      
      <!-- Diagonal connections for more tech look -->
      <line x1="0" y1="-8" x2="8" y2="-8"/>
      <line x1="0" y1="5" x2="8" y2="5"/>
    </g>
    
    <!-- Circuit nodes -->
    <g class="circuit-nodes">
      <circle cx="-20" cy="-8" r="2.5"/>
      <circle cx="0" cy="-8" r="2.5"/>
      <circle cx="8" cy="-8" r="2.5"/>
      <circle cx="28" cy="-8" r="2.5"/>
      <circle cx="-20" cy="5" r="2.5"/>
      <circle cx="0" cy="5" r="2.5"/>
      <circle cx="8" cy="5" r="2.5"/>
      <circle cx="28" cy="5" r="2.5"/>
      <circle cx="-12" cy="18" r="2.5"/>
      <circle cx="4" cy="18" r="2.5"/>
      <circle cx="20" cy="18" r="2.5"/>
    </g>
  </g>
  
  <!-- Tech Board Text -->
  <text x="100" y="155" text-anchor="middle" class="text-main" style="font-size: 18px;">Tech Board</text>
</svg>